<svg width="24" height="24" viewBox="0 0 24 24" fill="none" xmlns="http://www.w3.org/2000/svg">
  <rect width="24" height="24" rx="4" fill="#000000"/>
  <path d="M12.2 4.5c-3.1 0-5.7 2.6-5.7 5.7 0 1.6.7 3.1 1.8 4.1.3.3.7.2 1-.1.3-.3.2-.7-.1-1-.8-.7-1.3-1.8-1.3-3 0-2.2 1.8-4 4-4s4 1.8 4 4c0 1.2-.5 2.3-1.3 3-.3.3-.4.7-.1 1 .2.2.5.3.8.1 1.1-1 1.8-2.5 1.8-4.1.1-3.1-2.5-5.7-5.9-5.7z" fill="white"/>
  <circle cx="12" cy="10.2" r="2.5" fill="white"/>
  <path d="M16.5 16c-.8 0-1.5-.7-1.5-1.5s.7-1.5 1.5-1.5 1.5.7 1.5 1.5-.7 1.5-1.5 1.5z" fill="white"/>
</svg>