<svg width="24" height="24" viewBox="0 0 24 24" fill="none" xmlns="http://www.w3.org/2000/svg">
  <rect width="24" height="24" rx="4" fill="#FF0000"/>
  <path d="M19.615 8.564c-.188-.73-.745-1.287-1.475-1.475C16.896 6.75 12 6.75 12 6.75s-4.896 0-6.14.339c-.73.188-1.287.745-1.475 1.475C4.046 9.807 4.046 12.25 4.046 12.25s0 2.443.339 3.686c.188.73.745 1.287 1.475 1.475 1.244.339 6.14.339 6.14.339s4.896 0 6.14-.339c.73-.188 1.287-.745 1.475-1.475.339-1.243.339-3.686.339-3.686s0-2.443-.339-3.686z" fill="white"/>
  <path d="M10.5 15.25V9.25l4.5 3-4.5 3z" fill="#FF0000"/>
</svg>